<svg height="479pt" viewBox="0 0 479 479.80339" width="479pt" xmlns="http://www.w3.org/2000/svg"><path d="m112.207031 127.804688h32v224h-32c-35.347656 0-64-28.65625-64-64v-96c0-35.347657 28.652344-64 64-64zm0 0" fill="#ffda4a"/><path d="m384.207031 40.921875v397.761719c-.003906 5.46875-2.796875 10.558594-7.410156 13.496094-4.613281 2.933593-10.40625 3.3125-15.359375 1l-217.230469-101.375v-224l217.230469-101.378907c4.953125-2.3125 10.746094-1.933593 15.359375 1.003907s7.40625 8.023437 7.410156 13.492187zm0 0" fill="#00709f"/><g fill="#eee"><path d="m320.207031 431.804688c-8.839843 0-16-7.164063-16-16v-256c0-8.835938 7.160157-16 16-16 8.835938 0 16 7.164062 16 16v256c0 8.835937-7.164062 16-16 16zm0 0"/><path d="m320.207031 111.804688c-8.839843 0-16-7.164063-16-16v-32c0-8.835938 7.160157-16 16-16 8.835938 0 16 7.164062 16 16v32c0 8.835937-7.164062 16-16 16zm0 0"/><path d="m464.207031 479.804688c-4.246093-.003907-8.3125-1.6875-11.3125-4.6875l-448-448c-6.066406-6.28125-5.976562-16.257813.195313-22.429688 6.167968-6.171875 16.148437-6.257812 22.425781-.195312l448 448c4.574219 4.574218 5.945313 11.457031 3.46875 17.433593-2.476563 5.976563-8.308594 9.875-14.777344 9.878907zm0 0"/></g></svg>