<svg height="432pt" viewBox="0 -1 432 432" width="432pt" xmlns="http://www.w3.org/2000/svg"><g fill="#ffda4a"><path d="m336 118.878906c-6.46875-.003906-12.304688-3.902344-14.777344-9.878906-2.476562-5.976562-1.109375-12.859375 3.464844-17.433594l64-64c4.019531-4.160156 9.964844-5.828125 15.5625-4.363281 5.59375 1.464844 9.960938 5.832031 11.425781 11.425781 1.464844 5.59375-.203125 11.542969-4.363281 15.5625l-64 64c-3 3-7.070312 4.6875-11.3125 4.6875zm0 0"/><path d="m416 230.878906h-80c-8.835938 0-16-7.164062-16-16 0-8.835937 7.164062-16 16-16h80c8.835938 0 16 7.164063 16 16 0 8.835938-7.164062 16-16 16zm0 0"/><path d="m400 406.878906c-4.242188 0-8.3125-1.6875-11.3125-4.6875l-64-64c-6.0625-6.28125-5.976562-16.257812.195312-22.429687 6.171876-6.171875 16.152344-6.257813 22.429688-.195313l64 64c4.574219 4.574219 5.941406 11.457032 3.464844 17.433594-2.472656 5.976562-8.308594 9.875-14.777344 9.878906zm0 0"/><path d="m64 102.878906h32v224h-32c-35.347656 0-64-28.65625-64-64v-96c0-35.347656 28.652344-64 64-64zm0 0"/></g><path d="m336 15.996094v397.761718c0 5.46875-2.792969 10.558594-7.40625 13.496094-4.613281 2.933594-10.40625 3.3125-15.363281 1l-217.230469-101.375v-224l217.230469-101.378906c4.957031-2.3125 10.75-1.933594 15.363281 1.003906s7.40625 8.027344 7.40625 13.492188zm0 0" fill="#00709f"/><path d="m272 406.878906c-8.835938 0-16-7.164062-16-16v-256c0-8.835937 7.164062-16 16-16s16 7.164063 16 16v256c0 8.835938-7.164062 16-16 16zm0 0" fill="#eee"/><path d="m272 86.878906c-8.835938 0-16-7.164062-16-16v-32c0-8.835937 7.164062-16 16-16s16 7.164063 16 16v32c0 8.835938-7.164062 16-16 16zm0 0" fill="#eee"/></svg>