<?xml version="1.0" encoding="iso-8859-1"?>
<!-- Generator: Adobe Illustrator 19.0.0, SVG Export Plug-In . SVG Version: 6.00 Build 0)  -->
<svg version="1.1" id="Capa_1" xmlns="http://www.w3.org/2000/svg" xmlns:xlink="http://www.w3.org/1999/xlink" x="0px" y="0px"
	 viewBox="0 0 512 512" style="enable-background:new 0 0 512 512;" xml:space="preserve">
<g>
	<path style="fill:#96ABBC;" d="M50.897,454.18c-4.408,0-7.981-3.573-7.981-7.981v-13.292c0-4.408,3.573-7.981,7.981-7.981
		s7.981,3.573,7.981,7.981V446.2C58.878,450.607,55.305,454.18,50.897,454.18z"/>
	<path style="fill:#96ABBC;" d="M461.102,454.18c-4.408,0-7.981-3.573-7.981-7.981v-13.292c0-4.408,3.573-7.981,7.981-7.981
		s7.981,3.573,7.981,7.981V446.2C469.083,450.607,465.51,454.18,461.102,454.18z"/>
</g>
<path style="fill:#3E454C;" d="M0,422.398V292.241c0-5.804,4.705-10.51,10.51-10.51h490.98c5.804,0,10.51,4.705,10.51,10.51v130.157
	c0,5.804-4.705,10.51-10.51,10.51H10.51C4.705,432.908,0,428.202,0,422.398z"/>
<path style="fill:#363C44;" d="M0,357.319V292.24c0-5.804,4.705-10.51,10.51-10.51h490.98c5.804,0,10.51,4.705,10.51,10.51v65.079H0
	z"/>
<path style="fill:#FFE92F;" d="M262.933,371.685H0v-28.73h262.933c3.763,0,6.813,3.05,6.813,6.813v15.105
	C269.746,368.634,266.696,371.685,262.933,371.685z"/>
<path style="fill:#00BCE8;" d="M262.933,371.685H0v-28.73h262.933c3.763,0,6.813,3.05,6.813,6.813v15.105
	C269.746,368.634,266.696,371.685,262.933,371.685z"/>
<path style="fill:#2B84E9;" d="M252.184,362.067H0v-9.496h252.184c2.107,0,3.816,1.708,3.816,3.816v1.865
	C256,360.359,254.292,362.067,252.184,362.067z"/>
<circle style="fill:#2676C6;" cx="307.4" cy="357.32" r="7.981"/>
<circle style="fill:#363C44;" cx="443.9" cy="365.83" r="18.13"/>
<circle style="fill:#7A6CF7;" cx="443.9" cy="357.32" r="17.02"/>
<polygon style="fill:#363C44;" points="312.034,64.222 199.966,64.222 208.029,88.235 250.06,111.927 300.604,96.127 "/>
<path style="fill:#555E6B;" d="M256,210.833h56.026c10.882,0,21.172,4.952,27.961,13.455l44.599,55.857
	c1.294,1.621,3.575,2.06,5.378,1.036l0,0c24.887-14.133,37.227-43.18,30.123-70.904l-26.071-101.742
	c-4.851-18.93-18.651-34.291-36.954-41.135l-21.917-8.195c-8.021-2.999-17.055-1.038-23.11,5.017l-21.852,21.852
	c-3.987,3.987-9.394,6.227-15.032,6.227H256h-19.15c-5.638,0-11.046-2.24-15.032-6.227l-21.852-21.852
	c-6.055-6.055-15.089-8.016-23.11-5.017L154.939,67.4c-18.303,6.844-32.104,22.205-36.954,41.135L91.913,210.276
	c-7.104,27.724,5.236,56.771,30.123,70.904l0,0c1.804,1.024,4.084,0.585,5.378-1.036l44.599-55.857
	c6.79-8.503,17.08-13.455,27.961-13.455H256V210.833z"/>
<g>
	<path style="fill:#414954;" d="M140.969,224.288l-35.028,43.87c4.524,5.093,9.922,9.517,16.094,13.023l0,0
		c1.804,1.024,4.084,0.585,5.378-1.036l44.599-55.857c6.79-8.503,17.08-13.455,27.961-13.455H168.93
		C158.048,210.833,147.758,215.785,140.969,224.288z"/>
	<path style="fill:#414954;" d="M420.087,210.276l-26.071-101.742c-4.851-18.929-18.651-34.291-36.954-41.135l-21.917-8.195
		c-7.338-2.744-15.516-1.325-21.493,3.571l12.366,4.624c18.303,6.844,32.104,22.205,36.955,41.135l26.071,101.742
		c5.342,20.848-0.313,42.442-14.028,57.881l9.571,11.987c1.294,1.621,3.575,2.06,5.378,1.036l0,0
		C414.851,267.047,427.191,238,420.087,210.276z"/>
	<circle style="fill:#414954;" cx="172.96" cy="112.56" r="19.01"/>
	<circle style="fill:#414954;" cx="304.23" cy="165.1" r="19.01"/>
	<circle style="fill:#414954;" cx="302.03" cy="161.58" r="11.229"/>
	<circle style="fill:#414954;" cx="342.65" cy="95.73" r="7.981"/>
	<circle style="fill:#414954;" cx="342.65" cy="138.11" r="7.981"/>
	<circle style="fill:#414954;" cx="319.86" cy="117.25" r="7.981"/>
	<circle style="fill:#414954;" cx="365.44" cy="117.25" r="7.981"/>
	<path style="fill:#414954;" d="M234.066,157.121h-11.029v-11.029c0-4.408-3.573-7.981-7.981-7.981s-7.981,3.573-7.981,7.981v11.029
		h-11.029c-4.408,0-7.981,3.573-7.981,7.981s3.573,7.981,7.981,7.981h11.029v11.029c0,4.408,3.573,7.981,7.981,7.981
		s7.981-3.573,7.981-7.981v-11.029h11.029c4.408,0,7.981-3.573,7.981-7.981C242.046,160.694,238.473,157.121,234.066,157.121z"/>
</g>
<circle style="fill:#FFD82F;" cx="172.96" cy="107.25" r="19.01"/>
<circle style="fill:#2E343A;" cx="304.23" cy="159.78" r="19.01"/>
<circle style="fill:#6E7A89;" cx="302.03" cy="156.26" r="11.229"/>
<circle style="fill:#F45735;" cx="342.65" cy="90.41" r="7.981"/>
<circle style="fill:#2B84E9;" cx="342.65" cy="132.79" r="7.981"/>
<circle style="fill:#FFE92F;" cx="319.86" cy="111.93" r="7.981"/>
<g>
	<circle style="fill:#49BC6E;" cx="365.44" cy="111.93" r="7.981"/>
	<path style="fill:#49BC6E;" d="M234.066,151.801h-11.029v-11.029c0-4.408-3.573-7.981-7.981-7.981s-7.981,3.573-7.981,7.981v11.029
		h-11.029c-4.408,0-7.981,3.573-7.981,7.981s3.573,7.981,7.981,7.981h11.029v11.029c0,4.408,3.573,7.981,7.981,7.981
		s7.981-3.573,7.981-7.981v-11.029h11.029c4.408,0,7.981-3.573,7.981-7.981C242.046,155.374,238.473,151.801,234.066,151.801z"/>
</g>
<g>
</g>
<g>
</g>
<g>
</g>
<g>
</g>
<g>
</g>
<g>
</g>
<g>
</g>
<g>
</g>
<g>
</g>
<g>
</g>
<g>
</g>
<g>
</g>
<g>
</g>
<g>
</g>
<g>
</g>
</svg>
